<?xml version="1.0" encoding="utf-8"?>
<!-- Generator: Adobe Illustrator 16.0.0, SVG Export Plug-In . SVG Version: 6.00 Build 0)  -->
<!DOCTYPE svg PUBLIC "-//W3C//DTD SVG 1.1//EN" "http://www.w3.org/Graphics/SVG/1.1/DTD/svg11.dtd">
<svg version="1.1" id="Layer_1" xmlns="http://www.w3.org/2000/svg" xmlns:xlink="http://www.w3.org/1999/xlink" x="0px" y="0px"
	 width="140px" height="30px" viewBox="0 0 140 30" enable-background="new 0 0 140 30" xml:space="preserve">
<g>
	<g>
		<path fill="#FFFFFF" d="M23.2,14.8h-8.8L12.6,19H9.4l8-18.7h2.8l8,18.7H25L23.2,14.8z M22.1,12.2l-2.4-5.8c-0.4-1-0.9-2.4-0.9-2.4
			h0c0,0-0.5,1.4-0.9,2.4l-2.4,5.8H22.1z"/>
		<path fill="#FFFFFF" d="M41.3,19l-4-6.7c-0.2,0-0.4,0-0.6,0h-3.2V19h-3V0.4h6.2c4.5,0,7.3,2.4,7.3,6.1c0,2.6-1.4,4.5-3.8,5.4
			l4.5,7.2H41.3z M37.1,9.8c2.6,0,3.8-1.5,3.8-3.3c0-1.9-1.3-3.3-3.8-3.3h-3.5v6.6H37.1z"/>
		<path fill="#FFFFFF" d="M61.5,5.7C60.4,4,58.2,2.9,56,2.9c-3.9,0-6.7,2.8-6.7,6.8c0,4.1,2.9,6.8,6.7,6.8c2.5,0,4.8-1.3,5.9-3.3
			l3,0.8c-1.6,3.3-4.9,5.4-8.9,5.4c-5.4,0-9.8-4.1-9.8-9.7S50.5,0,56,0c3.7,0,6.9,1.9,8.6,4.9L61.5,5.7z"/>
		<path fill="#FFFFFF" d="M82.9,0.4V19h-3v-8.2h-9.2V19h-3V0.4h3v7.7h9.2V0.4H82.9z"/>
		<path fill="#FFFFFF" d="M98,5.5c-0.4-2.3-2.4-3.6-4.7-3.6c-2.5,0-4.2,1.2-4.2,3c0,2.1,2.6,2.7,5.1,3.4c2.6,0.8,6.2,1.9,6.2,5.6
			c0,3.1-2.8,5.4-6.9,5.4c-4.1,0-6.6-2.3-7.2-5.5l2.1-0.6c0.3,2.2,2.1,4.1,5.2,4.1c2.8,0,4.5-1.5,4.5-3.4c0-2.7-3.3-3.3-5.9-4.1
			c-2.2-0.7-5.4-1.6-5.4-4.9c0-2.9,2.8-5.1,6.6-5.1c3.4,0,6.1,2,6.8,5L98,5.5z"/>
		<path fill="#FFFFFF" d="M103.9,19V0.4h2.2V19H103.9z"/>
		<path fill="#FFFFFF" d="M124.1,0.4v2.1h-6.4V19h-2.2V2.4h-6.3V0.4H124.1z"/>
		<path fill="#FFFFFF" d="M140,17V19h-12.8V0.4h12.6v2.1h-10.4v5.8h8.3v1.9h-8.3V17H140z"/>
		<g>
			<path fill="#FFFFFF" d="M14.3,28.4h-3l-0.6,1.5H9.5l2.8-6.4h1l2.8,6.4h-1.1L14.3,28.4z M13.9,27.5l-0.8-2
				c-0.1-0.3-0.3-0.8-0.3-0.8h0c0,0-0.2,0.5-0.3,0.8l-0.8,2H13.9z"/>
			<path fill="#FFFFFF" d="M21.3,29.9l-1.4-2.3c-0.1,0-0.1,0-0.2,0h-1.1v2.3h-1v-6.4h2.1c1.6,0,2.5,0.8,2.5,2.1
				c0,0.9-0.5,1.6-1.3,1.9l1.5,2.5H21.3z M19.8,26.7c0.9,0,1.3-0.5,1.3-1.1c0-0.7-0.5-1.1-1.3-1.1h-1.2v2.3H19.8z"/>
			<path fill="#FFFFFF" d="M29.3,25.3c-0.4-0.6-1.1-1-1.9-1c-1.4,0-2.3,1-2.3,2.3c0,1.4,1,2.3,2.3,2.3c0.9,0,1.7-0.5,2-1.1l1,0.3
				c-0.6,1.1-1.7,1.9-3.1,1.9c-1.9,0-3.4-1.4-3.4-3.3c0-1.9,1.5-3.3,3.4-3.3c1.3,0,2.4,0.7,3,1.7L29.3,25.3z"/>
			<path fill="#FFFFFF" d="M37.3,23.4v6.4h-1V27h-3.2v2.8h-1v-6.4h1v2.7h3.2v-2.7H37.3z"/>
			<path fill="#FFFFFF" d="M38.9,29.9v-6.4h1v6.4H38.9z"/>
			<path fill="#FFFFFF" d="M46.8,23.4v1h-2.1v5.5h-1v-5.5h-2.1v-1H46.8z"/>
			<path fill="#FFFFFF" d="M52.9,28.9v1h-4.5v-6.4h4.5v1h-3.4v1.7h2.7V27h-2.7v1.9H52.9z"/>
			<path fill="#FFFFFF" d="M59.8,25.3c-0.4-0.6-1.1-1-1.9-1c-1.4,0-2.3,1-2.3,2.3c0,1.4,1,2.3,2.3,2.3c0.9,0,1.7-0.5,2-1.1l1,0.3
				c-0.5,1.1-1.7,1.9-3.1,1.9c-1.9,0-3.4-1.4-3.4-3.3c0-1.9,1.5-3.3,3.4-3.3c1.3,0,2.4,0.7,3,1.7L59.8,25.3z"/>
			<path fill="#FFFFFF" d="M67.8,23.4v1h-2.1v5.5h-1v-5.5h-2.1v-1H67.8z"/>
			<path fill="#FFFFFF" d="M74.8,23.4v3.7c0,1.9-1,2.9-2.7,2.9c-1.7,0-2.7-1-2.7-2.9v-3.7h1v3.7c0,1.3,0.6,1.9,1.7,1.9
				c1.1,0,1.7-0.6,1.7-1.9v-3.7H74.8z"/>
			<path fill="#FFFFFF" d="M80.1,29.9l-1.4-2.3c-0.1,0-0.1,0-0.2,0h-1.1v2.3h-1v-6.4h2.1c1.6,0,2.5,0.8,2.5,2.1
				c0,0.9-0.5,1.6-1.3,1.9l1.5,2.5H80.1z M78.7,26.7c0.9,0,1.3-0.5,1.3-1.1c0-0.7-0.5-1.1-1.3-1.1h-1.2v2.3H78.7z"/>
			<path fill="#FFFFFF" d="M87.4,28.9v1h-4.5v-6.4h4.5v1h-3.4v1.7h2.7V27h-2.7v1.9H87.4z"/>
			<path fill="#FFFFFF" d="M103.3,23.4l-2.1,6.4h-0.9l-1-3.2c-0.3-0.8-0.3-1.2-0.3-1.2h0c0,0-0.1,0.4-0.3,1.2l-1,3.2h-0.9l-2.1-6.4
				h1.1l1.2,3.9c0.2,0.6,0.3,1,0.3,1h0c0,0,0.1-0.4,0.3-1l1.1-3.1h0.9l1.1,3.1c0.2,0.6,0.3,1,0.3,1h0c0,0,0.1-0.4,0.3-1l1.2-3.9
				H103.3z"/>
			<path fill="#FFFFFF" d="M109.8,28.9v1h-4.5v-6.4h4.5v1h-3.4v1.7h2.8V27h-2.8v1.9H109.8z"/>
			<path fill="#FFFFFF" d="M114.2,23.4c1.1,0,1.9,0.7,1.9,1.6c0,0.6-0.5,1.2-1,1.3v0c0.6,0.1,1.4,0.8,1.4,1.6c0,1.1-0.8,1.9-2.2,1.9
				h-2.7v-6.4H114.2z M114,26.1c0.7,0,1.1-0.4,1.1-0.9c0-0.5-0.4-0.9-1.1-0.9h-1.3v1.8H114z M114.3,29c0.7,0,1.2-0.4,1.2-1.1
				c0-0.6-0.6-1.1-1.3-1.1h-1.5V29H114.3z"/>
			<path fill="#FFFFFF" d="M122.4,25.3c-0.2-0.7-0.8-1.1-1.5-1.1c-0.7,0-1.2,0.3-1.2,0.9c0,0.6,0.8,0.8,1.7,1.1
				c0.9,0.3,2.1,0.7,2.1,1.9c0,1.1-1,1.9-2.4,1.9c-1.4,0-2.3-0.8-2.6-1.9l1-0.3c0.1,0.7,0.7,1.3,1.6,1.3c0.8,0,1.3-0.4,1.3-1
				c0-0.8-1-1-1.9-1.3c-0.8-0.3-1.8-0.6-1.8-1.7c0-1,1-1.8,2.3-1.8c1.2,0,2.2,0.7,2.4,1.7L122.4,25.3z"/>
			<path fill="#FFFFFF" d="M125.4,29.9v-6.4h1v6.4H125.4z"/>
			<path fill="#FFFFFF" d="M133.6,23.4v1h-2.1v5.5h-1v-5.5h-2.1v-1H133.6z"/>
			<path fill="#FFFFFF" d="M140,28.9v1h-4.5v-6.4h4.5v1h-3.4v1.7h2.7V27h-2.7v1.9H140z"/>
		</g>
	</g>
	<g>
		<rect fill="#FF0000" width="2" height="29.9"/>
	</g>
</g>
</svg>
